<svg width="61" height="54" viewBox="0 0 61 54" fill="none" xmlns="http://www.w3.org/2000/svg">
<path d="M59.8379 40.9866C60.659 40.2477 60.7255 38.9831 59.9866 38.1621L47.9452 24.7828C47.2063 23.9618 45.9417 23.8952 45.1207 24.6341C44.2997 25.373 44.2331 26.6376 44.972 27.4586L55.6755 39.3513L43.7828 50.0548C42.9618 50.7937 42.8952 52.0583 43.6341 52.8793C44.373 53.7003 45.6376 53.7669 46.4586 53.028L59.8379 40.9866ZM0.552121 0.953616C3.56129 13.8753 19.3952 39.4446 58.3949 41.4972L58.6051 37.5028C21.6048 35.5554 7.10538 11.458 4.44788 0.0463844L0.552121 0.953616Z" fill="#FFDC40"/>
</svg>
