<svg width="60" height="54" viewBox="0 0 60 54" fill="none" xmlns="http://www.w3.org/2000/svg">
<path d="M0.662071 40.9866C-0.158951 40.2477 -0.225506 38.9831 0.513412 38.1621L12.5548 24.7828C13.2937 23.9618 14.5583 23.8952 15.3793 24.6341C16.2003 25.373 16.2669 26.6376 15.528 27.4586L4.82452 39.3513L16.7172 50.0548C17.5382 50.7937 17.6048 52.0583 16.8659 52.8793C16.127 53.7003 14.8624 53.7669 14.0414 53.028L0.662071 40.9866ZM59.9479 0.953616C56.9387 13.8753 41.1048 39.4446 2.10512 41.4972L1.89488 37.5028C38.8952 35.5554 53.3946 11.458 56.0521 0.0463844L59.9479 0.953616Z" fill="#FFDC40"/>
</svg>
