<svg width="74" height="74" viewBox="0 0 74 74" fill="none" xmlns="http://www.w3.org/2000/svg">
<g clip-path="url(#clip0)">
<path d="M72.9552 36.851H68.181L37.1486 5.81864L6.11624 36.851H1.34203L37.1486 1.04443L72.9552 36.851Z" fill="#898890"/>
<path d="M71.7616 69.0767V72.6573H2.53558V69.0767H71.7616Z" fill="#898890"/>
<path d="M69.3745 36.851V69.0769H21.6324V47.5929H9.69689V69.0769H4.92268V36.851H6.11624L37.1486 5.8186L68.181 36.851H69.3745Z" fill="#D9CCBC"/>
<path d="M32.3744 47.593H65.7939V64.3027H32.3744V47.593Z" fill="#9BC9FF"/>
<path d="M64.6003 4.625V9.39921H52.6648V4.625H64.6003Z" fill="#898890"/>
<path d="M62.2132 9.39917V26.1089L55.0519 18.9476V9.39917H62.2132Z" fill="#C6C5CA"/>
<path d="M9.6969 47.593H21.6324V69.077H9.6969V47.593Z" fill="#A78966"/>
<path d="M73.7991 36.0071L63.4068 25.6148V10.5928H64.6003C65.2595 10.5928 65.7939 10.0584 65.7939 9.39925V4.62504C65.7939 3.96532 65.2595 3.43149 64.6003 3.43149H52.6648C52.0057 3.43149 51.4712 3.96532 51.4712 4.62504V9.39925C51.4712 10.0584 52.0057 10.5928 52.6648 10.5928H53.8583V16.0664L37.9925 0.200504C37.5268 -0.265728 36.771 -0.265728 36.3047 0.200504L0.498164 36.0071C0.157232 36.348 0.0552437 36.8615 0.239988 37.3073C0.424732 37.7531 0.859493 38.0439 1.34204 38.0445H3.72915V67.8833H2.53559C1.87646 67.8833 1.34204 68.4172 1.34204 69.0769V72.6575C1.34204 73.3167 1.87646 73.8511 2.53559 73.8511H71.7616C72.4208 73.8511 72.9552 73.3167 72.9552 72.6575V69.0769C72.9552 68.4172 72.4208 67.8833 71.7616 67.8833H70.5681V38.0445H72.9552C73.4383 38.0439 73.8731 37.7531 74.0578 37.3073C74.2426 36.8615 74.1406 36.348 73.7991 36.0071ZM53.8583 5.81859H63.4068V8.2057H53.8583V5.81859ZM56.2455 10.5928H61.0197V23.2277L56.2455 18.4535V10.5928ZM37.1486 2.73156L70.0739 35.6574H68.6752L37.9925 4.97471C37.5268 4.50848 36.771 4.50848 36.3047 4.97471L5.62205 35.6574H4.22335L37.1486 2.73156ZM70.5681 71.464H3.72915V70.2704H70.5681V71.464ZM20.4389 67.8833H10.8905V48.7865H20.4389V67.8833ZM68.181 67.8833H22.826V47.5929C22.826 46.9332 22.2916 46.3994 21.6324 46.3994H9.69691C9.03778 46.3994 8.50336 46.9332 8.50336 47.5929V67.8833H6.11625V38.0445C6.43271 38.0439 6.73634 37.9186 6.96013 37.6943L37.1486 7.50577L67.3371 37.6943C67.5609 37.9186 67.8645 38.0439 68.181 38.0445V67.8833Z" fill="black"/>
<path d="M50.2777 30.8832C50.2777 23.6322 44.3997 17.7542 37.1486 17.7542C29.8975 17.7542 24.0195 23.6322 24.0195 30.8832C24.0195 38.1337 29.8975 44.0123 37.1486 44.0123C44.3962 44.0036 50.2695 38.1302 50.2777 30.8832ZM26.4066 30.8832C26.4066 24.9504 31.2164 20.1413 37.1486 20.1413C43.0814 20.1413 47.8906 24.9504 47.8906 30.8832C47.8906 36.8154 43.0814 41.6252 37.1486 41.6252C31.2187 41.6182 26.4136 36.8131 26.4066 30.8832Z" fill="black"/>
<path d="M65.7939 46.3994H32.3744C31.7153 46.3994 31.1808 46.9332 31.1808 47.593V64.3027C31.1808 64.9618 31.7153 65.4963 32.3744 65.4963H65.7939C66.453 65.4963 66.9874 64.9618 66.9874 64.3027V47.593C66.9874 46.9332 66.453 46.3994 65.7939 46.3994ZM64.6003 63.1091H33.568V48.7865H64.6003V63.1091Z" fill="black"/>
<path d="M16.8582 57.1414H19.2453V59.5285H16.8582V57.1414Z" fill="black"/>
</g>
<defs>
<clipPath id="clip0">
<rect width="74" height="74" fill="white"/>
</clipPath>
</defs>
</svg>
