<svg width="30" height="30" viewBox="0 0 30 30" fill="none" xmlns="http://www.w3.org/2000/svg">
<path d="M15 30C23.2843 30 30 23.2843 30 15C30 6.71573 23.2843 0 15 0C6.71573 0 0 6.71573 0 15C0 23.2843 6.71573 30 15 30Z" fill="white"/>
<path fill-rule="evenodd" clip-rule="evenodd" d="M18.4703 6.41406H11.5296C8.70889 6.41406 6.41412 8.70883 6.41412 11.5295V18.4703C6.41412 21.2908 8.70889 23.5858 11.5297 23.5858H18.4704C21.291 23.5858 23.5859 21.291 23.5859 18.4703V11.5295C23.5858 8.70883 21.291 6.41406 18.4703 6.41406ZM21.8584 18.4703C21.8584 20.3414 20.3415 21.8583 18.4704 21.8583H11.5297C9.65852 21.8583 8.14164 20.3414 8.14164 18.4703V11.5296C8.14164 9.65846 9.65852 8.14152 11.5297 8.14152H18.4704C20.3415 8.14152 21.8584 9.65852 21.8584 11.5296V18.4703ZM15 10.5587C12.5511 10.5587 10.5587 12.5512 10.5587 15C10.5587 17.4487 12.5511 19.4411 15 19.4411C17.4488 19.4411 19.4411 17.4489 19.4411 15C19.4411 12.5512 17.4488 10.5587 15 10.5587ZM15 17.7137C13.5012 17.7137 12.2862 16.4989 12.2862 15C12.2862 13.5012 13.5012 12.2862 15 12.2862C16.4987 12.2862 17.7136 13.5011 17.7136 15C17.7136 16.4988 16.4987 17.7137 15 17.7137ZM19.4496 11.6564C20.0373 11.6564 20.5138 11.1798 20.5138 10.5921C20.5138 10.0043 20.0375 9.5279 19.4496 9.5279C18.8619 9.5279 18.3854 10.0044 18.3854 10.5921C18.3854 11.1798 18.8619 11.6564 19.4496 11.6564Z" fill="#FF9457"/>
</svg>
