<svg width="51" height="40" viewBox="0 0 51 40" fill="none" xmlns="http://www.w3.org/2000/svg">
<g clip-path="url(#clip0)">
<path d="M49.9238 38.6726V38.7747H50.018C50.0388 38.7747 50.0566 38.7697 50.0695 38.7618C50.0814 38.7539 50.0883 38.74 50.0883 38.7232C50.0883 38.7063 50.0814 38.6935 50.0695 38.6855C50.0566 38.6766 50.0388 38.6726 50.018 38.6726H49.9238ZM50.019 38.6013C50.0675 38.6013 50.1052 38.6122 50.1319 38.634C50.1587 38.6558 50.1715 38.6855 50.1715 38.7232C50.1715 38.7549 50.1616 38.7806 50.1398 38.8014C50.119 38.8213 50.0893 38.8341 50.0497 38.8391L50.1745 38.9827H50.0774L49.9615 38.8401H49.9238V38.9827H49.8426V38.6013H50.019ZM49.9942 39.1145C50.0388 39.1145 50.0804 39.1056 50.118 39.0887C50.1567 39.0719 50.1904 39.0491 50.2191 39.0204C50.2478 38.9917 50.2706 38.958 50.2875 38.9183C50.3033 38.8797 50.3122 38.8381 50.3122 38.7935C50.3122 38.7489 50.3033 38.7073 50.2875 38.6687C50.2706 38.63 50.2478 38.5954 50.2191 38.5666C50.1904 38.5379 50.1567 38.5151 50.118 38.4983C50.0804 38.4824 50.0388 38.4745 49.9942 38.4745C49.9496 38.4745 49.907 38.4824 49.8683 38.4983C49.8287 38.5151 49.794 38.5379 49.7653 38.5666C49.7366 38.5954 49.7138 38.63 49.6979 38.6687C49.6811 38.7073 49.6731 38.7489 49.6731 38.7935C49.6731 38.8381 49.6811 38.8797 49.6979 38.9183C49.7138 38.958 49.7366 38.9917 49.7653 39.0204C49.794 39.0491 49.8287 39.0719 49.8683 39.0887C49.907 39.1056 49.9496 39.1145 49.9942 39.1145ZM49.9942 38.3824C50.0526 38.3824 50.1061 38.3933 50.1577 38.4151C50.2082 38.4359 50.2518 38.4656 50.2904 38.5032C50.3281 38.5399 50.3578 38.5835 50.3796 38.634C50.4014 38.6835 50.4123 38.737 50.4123 38.7935C50.4123 38.85 50.4014 38.9035 50.3796 38.953C50.3578 39.0025 50.3281 39.0461 50.2904 39.0838C50.2518 39.1204 50.2082 39.1502 50.1577 39.172C50.1061 39.1938 50.0526 39.2047 49.9942 39.2047C49.9347 39.2047 49.8802 39.1938 49.8287 39.172C49.7772 39.1502 49.7326 39.1204 49.6949 39.0838C49.6573 39.0461 49.6276 39.0025 49.6058 38.953C49.584 38.9035 49.5731 38.85 49.5731 38.7935C49.5731 38.737 49.584 38.6835 49.6058 38.634C49.6276 38.5835 49.6573 38.5399 49.6949 38.5032C49.7326 38.4656 49.7772 38.4359 49.8287 38.4151C49.8802 38.3933 49.9347 38.3824 49.9942 38.3824ZM11.3897 36.9132C11.3897 36.186 11.8663 35.5886 12.6451 35.5886C13.3892 35.5886 13.8916 36.1602 13.8916 36.9132C13.8916 37.6661 13.3892 38.2377 12.6451 38.2377C11.8663 38.2377 11.3897 37.6403 11.3897 36.9132ZM14.7397 36.9132V34.8446H13.84V35.3469C13.5547 34.9744 13.1217 34.7406 12.5331 34.7406C11.3728 34.7406 10.4632 35.65 10.4632 36.9132C10.4632 38.1773 11.3728 39.0858 12.5331 39.0858C13.1217 39.0858 13.5547 38.852 13.84 38.4795V38.9817H14.7397V36.9132ZM45.143 36.9132C45.143 36.186 45.6196 35.5886 46.3984 35.5886C47.1435 35.5886 47.6449 36.1602 47.6449 36.9132C47.6449 37.6661 47.1435 38.2377 46.3984 38.2377C45.6196 38.2377 45.143 37.6403 45.143 36.9132ZM48.494 36.9132V33.1832H47.5933V35.3469C47.308 34.9744 46.875 34.7406 46.2864 34.7406C45.1261 34.7406 44.2165 35.65 44.2165 36.9132C44.2165 38.1773 45.1261 39.0858 46.2864 39.0858C46.875 39.0858 47.308 38.852 47.5933 38.4795V38.9817H48.494V36.9132ZM25.9076 35.546C26.4872 35.546 26.8598 35.9096 26.9549 36.5496H24.8078C24.9039 35.9522 25.2665 35.546 25.9076 35.546ZM25.9254 34.7406C24.7126 34.7406 23.8645 35.6233 23.8645 36.9132C23.8645 38.2288 24.7473 39.0858 25.9859 39.0858C26.6091 39.0858 27.1799 38.9302 27.6822 38.5062L27.2413 37.8395C26.8945 38.1159 26.4526 38.2724 26.0374 38.2724C25.4578 38.2724 24.9296 38.0039 24.7998 37.2589H27.8725C27.8814 37.147 27.8903 37.034 27.8903 36.9132C27.8814 35.6233 27.0847 34.7406 25.9254 34.7406ZM36.7891 36.9132C36.7891 36.186 37.2657 35.5886 38.0445 35.5886C38.7887 35.5886 39.291 36.1602 39.291 36.9132C39.291 37.6661 38.7887 38.2377 38.0445 38.2377C37.2657 38.2377 36.7891 37.6403 36.7891 36.9132ZM40.1392 36.9132V34.8446H39.2395V35.3469C38.9531 34.9744 38.5211 34.7406 37.9326 34.7406C36.7723 34.7406 35.8627 35.65 35.8627 36.9132C35.8627 38.1773 36.7723 39.0858 37.9326 39.0858C38.5211 39.0858 38.9531 38.852 39.2395 38.4795V38.9817H40.1392V36.9132ZM31.708 36.9132C31.708 38.1684 32.582 39.0858 33.9157 39.0858C34.5389 39.0858 34.9541 38.9471 35.4039 38.5924L34.9719 37.8652C34.634 38.108 34.2793 38.2377 33.8889 38.2377C33.1705 38.2288 32.6424 37.7097 32.6424 36.9132C32.6424 36.1167 33.1705 35.5975 33.8889 35.5886C34.2793 35.5886 34.634 35.7184 34.9719 35.9611L35.4039 35.2339C34.9541 34.8793 34.5389 34.7406 33.9157 34.7406C32.582 34.7406 31.708 35.658 31.708 36.9132ZM43.3079 34.7406C42.7887 34.7406 42.4508 34.9833 42.217 35.3469V34.8446H41.3252V38.9817H42.2259V36.6625C42.2259 35.978 42.5202 35.5975 43.1088 35.5975C43.2911 35.5975 43.4813 35.6233 43.6716 35.7016L43.949 34.8535C43.7498 34.7753 43.4902 34.7406 43.3079 34.7406ZM19.1896 35.1735C18.7566 34.8882 18.1601 34.7406 17.5022 34.7406C16.4539 34.7406 15.7791 35.2429 15.7791 36.0651C15.7791 36.7398 16.2815 37.1559 17.2069 37.2857L17.632 37.3461C18.1255 37.4155 18.3583 37.5452 18.3583 37.779C18.3583 38.099 18.0294 38.2813 17.415 38.2813C16.7918 38.2813 16.3419 38.0822 16.0387 37.8484L15.6146 38.5488C16.1081 38.9124 16.7313 39.0858 17.4061 39.0858C18.6011 39.0858 19.2937 38.5231 19.2937 37.7355C19.2937 37.0083 18.7487 36.6279 17.848 36.4981L17.4239 36.4367C17.0345 36.3851 16.7224 36.3079 16.7224 36.0305C16.7224 35.7273 17.0167 35.546 17.5101 35.546C18.0383 35.546 18.5495 35.7451 18.8002 35.9007L19.1896 35.1735ZM30.7984 34.7406C30.2792 34.7406 29.9414 34.9833 29.7085 35.3469V34.8446H28.8167V38.9817H29.7164V36.6625C29.7164 35.978 30.0107 35.5975 30.5993 35.5975C30.7816 35.5975 30.9718 35.6233 31.1621 35.7016L31.4395 34.8535C31.2404 34.7753 30.9808 34.7406 30.7984 34.7406ZM23.1203 34.8446H21.6489V33.5894H20.7393V34.8446H19.9001V35.6669H20.7393V37.5542C20.7393 38.5141 21.1119 39.0858 22.1761 39.0858C22.5665 39.0858 23.0163 38.9649 23.3017 38.7658L23.0421 37.995C22.7735 38.1506 22.4793 38.2288 22.2454 38.2288C21.7956 38.2288 21.6489 37.9514 21.6489 37.5363V35.6669H23.1203V34.8446ZM9.66757 38.9817V36.3851C9.66757 35.4073 9.04432 34.7495 8.0396 34.7406C7.51147 34.7317 6.96651 34.8961 6.58503 35.4767C6.29967 35.018 5.84982 34.7406 5.21766 34.7406C4.77574 34.7406 4.34373 34.8704 4.00585 35.3548V34.8446H3.10516V38.9817H4.01377V36.6883C4.01377 35.97 4.41209 35.5886 5.02741 35.5886C5.62489 35.5886 5.9271 35.978 5.9271 36.6794V38.9817H6.8367V36.6883C6.8367 35.97 7.25187 35.5886 7.84935 35.5886C8.46368 35.5886 8.75796 35.978 8.75796 36.6794V38.9817H9.66757Z" fill="#231F20"/>
<path d="M50.4787 25.223V24.6186H50.3212L50.1388 25.0337L49.9575 24.6186H49.799V25.223H49.9109V24.7672L50.0814 25.1605H50.1973L50.3677 24.7663V25.223H50.4787ZM49.4789 25.223V24.7217H49.6811V24.6196H49.1658V24.7217H49.368V25.223H49.4789Z" fill="#F79410"/>
<path d="M32.5641 27.8225H18.9284V3.32068H32.5641V27.8225Z" fill="#FF5F00"/>
<path d="M19.802 15.5697C19.802 10.5993 22.1295 6.17192 25.754 3.31873C23.1035 1.23232 19.7584 -0.0129803 16.123 -0.0129803C7.51643 -0.0129803 0.539856 6.96349 0.539856 15.5697C0.539856 24.1758 7.51643 31.1523 16.123 31.1523C19.7584 31.1523 23.1035 29.907 25.754 27.8206C22.1295 24.9674 19.802 20.54 19.802 15.5697Z" fill="#EB001B"/>
<path d="M50.9543 15.5697C50.9543 24.1758 43.9777 31.1523 35.3712 31.1523C31.7358 31.1523 28.3907 29.907 25.7391 27.8206C29.3647 24.9674 31.6922 20.54 31.6922 15.5697C31.6922 10.5993 29.3647 6.17192 25.7391 3.31873C28.3907 1.23232 31.7358 -0.0129803 35.3712 -0.0129803C43.9777 -0.0129803 50.9543 6.96349 50.9543 15.5697Z" fill="#F79E1B"/>
</g>
<defs>
<clipPath id="clip0">
<rect width="50.4298" height="39.2231" fill="white" transform="translate(0.52063)"/>
</clipPath>
</defs>
</svg>
