<svg width="70" height="70" viewBox="0 0 70 70" fill="none" xmlns="http://www.w3.org/2000/svg">
<path d="M35 68.9726C50.7363 68.9726 63.4932 56.2158 63.4932 40.4795C63.4932 24.7431 50.7363 11.9863 35 11.9863C19.2637 11.9863 6.50687 24.7431 6.50687 40.4795C6.50687 56.2158 19.2637 68.9726 35 68.9726Z" fill="#D7DEED"/>
<path d="M35 64.866C48.4682 64.866 59.3864 53.9479 59.3864 40.4797C59.3864 27.0114 48.4682 16.0933 35 16.0933C21.5318 16.0933 10.6136 27.0114 10.6136 40.4797C10.6136 53.9479 21.5318 64.866 35 64.866Z" fill="white"/>
<path d="M34.9628 20.7535L35 40.4795L48.9745 54.4017C52.5375 50.8253 54.7361 45.8895 54.7259 40.4425C54.7054 29.548 45.8572 20.7329 34.9628 20.7535Z" fill="#FFCDCD"/>
<path d="M55.854 19.5841C54.2773 18.0108 52.5538 16.6376 50.7148 15.4768L52.7528 11.9316L55.0259 13.2383C55.1872 13.3312 55.3633 13.3752 55.5369 13.3752C55.8927 13.3752 56.2385 13.1901 56.4286 12.8596C56.7113 12.3677 56.5418 11.7398 56.0499 11.457L49.7578 7.84014C49.2659 7.55713 48.6379 7.72693 48.3551 8.21885C48.0723 8.71076 48.2419 9.33871 48.7338 9.62145L50.9712 10.9076L48.9395 14.442C44.981 12.3163 40.5666 11.124 35.9719 10.9763L35.9715 10.7223C37.0249 10.5189 37.9934 10.0067 38.7674 9.22988C39.7876 8.20586 40.3479 6.84605 40.3451 5.4008C40.3394 2.42293 37.9121 0 34.9237 0C33.4783 0.00273437 32.1207 0.568066 31.1005 1.59195C30.0804 2.61598 29.52 3.97564 29.5228 5.42104C29.5277 8.05137 31.4222 10.2472 33.9163 10.7245L33.9168 10.9804C26.4173 11.2494 19.409 14.3017 14.0861 19.6446C8.52097 25.2308 5.46435 32.6498 5.47912 40.5349C5.49388 48.4109 8.5717 55.8117 14.1457 61.3748C19.7191 66.9368 27.1248 70 34.9989 70H35.0556C42.9409 69.9852 50.3484 66.9006 55.9136 61.3144C61.4788 55.7283 64.5355 48.3092 64.5207 40.424C64.5055 32.5481 61.4277 25.1471 55.854 19.5841ZM31.5779 5.41721C31.5763 4.52061 31.9237 3.67732 32.5564 3.04213C33.1891 2.40707 34.0313 2.05652 34.9342 2.05475C36.7811 2.05475 38.2867 3.55742 38.2903 5.40449C38.293 6.89678 37.3161 8.16594 35.9675 8.60357L35.9615 5.409C35.9604 4.84148 35.5 4.38566 34.9322 4.38348C34.3648 4.38457 33.9055 4.84545 33.9066 5.41283L33.9127 8.6074C32.5626 8.17455 31.5806 6.9084 31.5779 5.41721ZM54.4577 59.8642C49.2798 65.0614 42.3879 67.9314 35.0514 67.9453H34.9986C19.883 67.9453 7.56244 55.6474 7.534 40.5311C7.50556 25.3863 19.8036 13.0423 34.9483 13.0136H35.0011C50.1167 13.0136 62.4371 25.3114 62.4657 40.4277C62.4794 47.7642 59.6355 54.6669 54.4577 59.8642Z" fill="black"/>
<path d="M56.3924 27.2732C56.0939 26.7907 55.4609 26.6414 54.9782 26.9399C54.4956 27.2383 54.3464 27.8715 54.6448 28.354C56.8854 31.9761 58.074 36.1539 58.082 40.4357C58.1058 53.1634 47.7708 63.5375 35.0432 63.5614C35.0286 63.5614 35.014 63.5614 34.9991 63.5614C22.2916 63.5614 11.9414 53.2353 11.9175 40.5226C11.8936 27.7949 22.2287 17.4208 34.9563 17.3969C34.9709 17.3969 34.9854 17.3969 35.0001 17.3969C39.265 17.3969 43.4298 18.5686 47.0468 20.7862C47.5308 21.083 48.1632 20.9312 48.4597 20.4473C48.7562 19.9635 48.6046 19.3311 48.1208 19.0345C44.18 16.6182 39.6443 15.342 34.9997 15.342C34.9841 15.342 34.9679 15.342 34.952 15.342C21.0922 15.3683 9.83692 26.6659 9.8629 40.5266C9.88888 54.372 21.1594 65.6178 34.9991 65.6164C35.0142 65.6164 35.0317 65.6164 35.0472 65.6164C48.9077 65.5904 60.163 54.2927 60.137 40.4321C60.1282 35.7695 58.8332 31.2191 56.3924 27.2732Z" fill="black"/>
<path d="M50.3549 23.2448C50.9927 23.8135 51.6053 24.4238 52.1758 25.059C52.3787 25.2847 52.659 25.3997 52.9405 25.3997C53.185 25.3997 53.4305 25.3128 53.6268 25.1365C54.049 24.7574 54.0838 24.1077 53.7045 23.6855C53.0835 22.9942 52.4167 22.3299 51.7225 21.7111C51.2989 21.3334 50.6497 21.3706 50.2719 21.7941C49.8941 22.2179 49.9315 22.8675 50.3549 23.2448Z" fill="black"/>
<path d="M41.7725 20.8631C39.6487 20.127 37.3703 19.7258 35.0005 19.7258H34.9606C34.3932 19.7269 33.934 20.1878 33.9351 20.7552L33.9494 28.4261V28.4269L33.9618 35.0017V35.002L33.9723 40.4812C33.9728 40.7537 34.0815 41.015 34.2746 41.2072L44.705 51.5985L44.7051 51.5987H44.7052L48.2493 55.1293C48.4419 55.3211 48.7025 55.4288 48.9743 55.4288C48.9748 55.4288 48.9755 55.4288 48.9762 55.4288C49.2487 55.4283 49.5098 55.3195 49.702 55.1266C53.6145 51.1994 55.7635 45.9836 55.7531 40.4404C55.7498 38.7016 55.5301 37.0125 55.1217 35.3976C55.1129 35.3464 55.1002 35.2959 55.0837 35.2461C54.6462 33.57 54.0032 31.9758 53.1841 30.4916C53.1517 30.4097 53.1077 30.3318 53.0534 30.2588C52.2786 28.8965 51.3548 27.6293 50.3033 26.4808C50.2682 26.43 50.2288 26.3814 50.1834 26.3362C50.1559 26.3088 50.127 26.2837 50.0974 26.26C47.8617 23.8877 45.0756 22.0405 41.9461 20.9243C41.8899 20.8986 41.8318 20.8782 41.7725 20.8631ZM44.2579 24.241L36.0124 32.5175L36.0056 28.848L41.7782 23.0537C42.6372 23.3893 43.4655 23.7871 44.2579 24.241ZM48.0082 27.0642L36.0247 39.093L36.0179 35.4236L46.019 25.3848C46.7205 25.8985 47.3852 26.4598 48.0082 27.0642ZM50.9367 30.7124L38.84 42.8548L37.0018 41.0235L49.4047 28.5739C49.9636 29.2486 50.4757 29.9631 50.9367 30.7124ZM52.9583 35.271L42.1338 46.1362L40.2957 44.3049L51.9552 32.6015C52.3551 33.4581 52.6907 34.3502 52.9583 35.271ZM53.6986 40.4441C53.699 40.6726 53.6942 40.9007 53.6866 41.1279L45.4279 49.4177L43.5898 47.5865L53.485 37.654C53.6235 38.5644 53.6968 39.496 53.6986 40.4441ZM39.5802 22.3486L36 25.9423L35.9922 21.8067C37.223 21.8714 38.4227 22.0558 39.5802 22.3486ZM48.9523 52.9291L46.8834 50.8682L53.2776 44.4498C52.6022 47.5886 51.1273 50.4974 48.9523 52.9291Z" fill="black"/>
</svg>
