<svg width="70" height="70" viewBox="0 0 70 70" fill="none" xmlns="http://www.w3.org/2000/svg">
<g clip-path="url(#clip0)">
<path d="M35.4929 2.93915L39.626 1.37728C40.087 1.2031 40.6059 1.28527 40.9905 1.59343L44.4388 4.35611C44.7037 4.56843 45.0371 4.67671 45.3761 4.66072L49.7898 4.45249C50.2821 4.42925 50.7501 4.66769 51.0207 5.07976L53.4465 8.77281C53.6328 9.05663 53.9163 9.26253 54.2438 9.35208L58.5058 10.5179C58.9811 10.6479 59.3525 11.0192 59.4825 11.4946L60.6483 15.7565C60.7378 16.084 60.9437 16.3675 61.2276 16.5539L64.9206 18.9797C65.3326 19.2504 65.5711 19.7182 65.5479 20.2106L65.3397 24.6242C65.3237 24.9633 65.4321 25.2966 65.6443 25.5616L68.4069 29.0099C68.7151 29.3945 68.7973 29.9134 68.6231 30.3744L67.0612 34.5075C66.9412 34.8251 66.9412 35.1755 67.0612 35.4931L68.6231 39.6263C68.7973 40.0873 68.7151 40.6061 68.4069 40.9907L65.6443 44.439C65.4319 44.704 65.3237 45.0373 65.3397 45.3764L65.5479 49.7901C65.5711 50.2824 65.3327 50.7504 64.9206 51.0209L61.2276 53.4467C60.9437 53.6331 60.7378 53.9165 60.6483 54.2441L59.4825 58.506C59.3525 58.9814 58.9811 59.3527 58.5058 59.4827L54.2438 60.6485C53.9164 60.7381 53.6328 60.944 53.4465 61.2278L51.0207 64.9209C50.75 65.3328 50.2821 65.5714 49.7898 65.5481L45.3761 65.3399C45.0371 65.3239 44.7037 65.4323 44.4388 65.6445L40.9905 68.4072C40.6059 68.7154 40.087 68.7975 39.626 68.6233L35.4929 67.0615C35.1753 66.9414 34.8249 66.9414 34.5073 67.0615L30.3741 68.6233C29.9131 68.7975 29.3942 68.7154 29.0097 68.4072L25.5613 65.6445C25.2964 65.4322 24.9631 65.3239 24.624 65.3399L20.2103 65.5481C19.718 65.5714 19.25 65.3329 18.9794 64.9209L16.5536 61.2278C16.3673 60.944 16.0839 60.7381 15.7563 60.6485L11.4943 59.4827C11.019 59.3527 10.6476 58.9814 10.5176 58.506L9.35183 54.2441C9.26228 53.9166 9.05638 53.6331 8.77255 53.4467L5.07964 51.0207C4.66771 50.75 4.42913 50.2821 4.45237 49.7898L4.6606 45.3761C4.67659 45.0369 4.56818 44.7037 4.35599 44.4388L1.59331 40.9904C1.28515 40.6059 1.20298 40.087 1.37716 39.626L2.93903 35.4928C3.05907 35.1752 3.05907 34.8248 2.93903 34.5072L1.37716 30.3738C1.20298 29.9128 1.28515 29.394 1.59331 29.0094L4.35599 25.561C4.56831 25.2961 4.67659 24.9628 4.6606 24.6237L4.45237 20.21C4.42913 19.7177 4.66757 19.2497 5.07964 18.9791L8.77269 16.5533C9.05652 16.367 9.26241 16.0836 9.35196 15.756L10.5178 11.4941C10.6478 11.0187 11.0191 10.6474 11.4945 10.5173L15.7564 9.35154C16.0839 9.26199 16.3674 9.05609 16.5538 8.77226L18.9796 5.07921C19.2503 4.66728 19.7181 4.4287 20.2104 4.45195L24.6241 4.66017C24.9632 4.6763 25.2965 4.56775 25.5615 4.35556L29.0098 1.59289C29.3944 1.28472 29.9132 1.20255 30.3742 1.37673L34.5074 2.93861C34.8247 3.05906 35.1753 3.05906 35.4929 2.93915Z" fill="#FFC850"/>
<path d="M45.522 59.551C26.1518 59.551 10.449 43.8483 10.449 24.478C10.449 19.2902 11.5843 14.3705 13.6057 9.94012L11.4946 10.5176C11.0192 10.6476 10.6479 11.019 10.5179 11.4943L9.35196 15.7563C9.26241 16.0837 9.05652 16.3673 8.77269 16.5538L5.07964 18.9796C4.66771 19.2503 4.42913 19.7181 4.45237 20.2103L4.6606 24.624C4.67659 24.9631 4.56818 25.2964 4.35599 25.5613L1.59331 29.0097C1.28515 29.3942 1.20298 29.9131 1.37716 30.374L2.93903 34.5071C3.05907 34.8247 3.05907 35.1751 2.93903 35.4927L1.37716 39.6259C1.20298 40.0869 1.28515 40.6057 1.59331 40.9903L4.35599 44.4386C4.56831 44.7036 4.67659 45.0369 4.6606 45.376L4.45237 49.7897C4.42913 50.282 4.66757 50.75 5.07964 51.0206L8.77269 53.4464C9.05638 53.6327 9.26241 53.9161 9.35196 54.2437L10.5179 58.5056C10.6479 58.981 11.0192 59.3523 11.4946 59.4826L15.7566 60.6486C16.084 60.7381 16.3676 60.944 16.5539 61.2278L18.9797 64.9209C19.2504 65.3328 19.7183 65.5713 20.2106 65.5481L24.6241 65.3399C24.9633 65.3239 25.2967 65.4324 25.5616 65.6445L29.0099 68.4072C29.3945 68.7152 29.9134 68.7975 30.3742 68.6234L34.5074 67.0615C34.825 66.9415 35.1754 66.9415 35.493 67.0615L39.6261 68.6234C40.0872 68.7975 40.606 68.7154 40.9905 68.4072L44.4388 65.6445C44.7037 65.4324 45.0371 65.3241 45.3763 65.3399L49.7898 65.5481C50.2821 65.5714 50.7501 65.333 51.0207 64.9209L53.4465 61.2278C53.6328 60.9441 53.9163 60.7381 54.2438 60.6486L58.5058 59.4826C58.9811 59.3526 59.3525 58.9813 59.4825 58.5056L60.06 56.3946C55.6293 58.4158 50.7097 59.551 45.522 59.551Z" fill="#E1A546"/>
<path d="M34.9999 61.8893C49.8504 61.8893 61.8892 49.8506 61.8892 35C61.8892 20.1495 49.8504 8.11072 34.9999 8.11072C20.1493 8.11072 8.1106 20.1495 8.1106 35C8.1106 49.8506 20.1493 61.8893 34.9999 61.8893Z" fill="#FFDC64"/>
<path d="M46.0109 54.1309C45.8146 53.8037 45.4736 53.5951 45.094 53.5563C31.5438 52.1708 20.9708 40.7319 20.9708 26.8162C20.9708 23.2904 21.653 19.9254 22.8881 16.841C23.2034 16.0539 22.3229 15.3416 21.6278 15.8271C14.8898 20.533 10.7438 28.6922 11.7746 37.7437C12.9733 48.268 21.3868 56.7857 31.8878 58.1755C36.8542 58.8328 41.5296 57.8855 45.5494 55.8291C46.1661 55.5137 46.3674 54.7251 46.0109 54.1309Z" fill="#FFC850"/>
<path d="M52.5424 30.9082C52.5424 29.2939 51.2338 27.9854 49.6196 27.9854H39.5012C42.2227 25.7819 44.0709 22.8262 44.338 20.3953C44.536 18.5928 43.2898 16.881 41.4766 16.8641C39.8505 16.8491 38.5271 18.1494 38.5271 19.7719C38.5271 20.8245 36.2425 23.9482 31.9611 25.3381C31.2747 25.5608 30.6763 25.9848 30.1823 26.5109C29.8183 26.8982 28.8487 28.078 27.898 28.7212C27.7255 28.2908 27.3083 27.9853 26.8163 27.9853H19.8017C19.1561 27.9853 18.6326 28.5088 18.6326 29.1543V47.8599C18.6326 48.5055 19.1561 49.029 19.8017 49.029H26.8163C27.4619 49.029 27.9854 48.5055 27.9854 47.8599H46.6968C47.9883 47.8599 49.035 46.8129 49.035 45.5218C49.035 44.2303 47.9883 43.1836 46.6968 43.1836H47.8659C49.1574 43.1836 50.2041 42.1366 50.2041 40.8454C50.2041 39.554 49.1574 38.5073 47.8659 38.5073H49.035C50.3264 38.5073 51.3732 37.4603 51.3732 36.1691C51.3732 34.8777 50.3264 33.8309 49.035 33.8309H49.6196C51.2337 33.8308 52.5424 32.5224 52.5424 30.9082Z" fill="white"/>
<path d="M45.522 40.8455C44.8764 40.8455 44.3529 41.369 44.3529 42.0145C44.3529 42.6601 44.8764 43.1836 45.522 43.1836H46.6969H47.7411C48.9058 43.1836 49.9853 42.3876 50.1723 41.238C50.1939 41.1043 50.1927 40.9749 50.1924 40.8455H45.522Z" fill="#FFFAB4"/>
<path d="M45.522 36.1691C44.8764 36.1691 44.3529 36.6926 44.3529 37.3381C44.3529 37.9837 44.8764 38.5072 45.522 38.5072H47.866H48.9102C50.0749 38.5072 51.1544 37.7113 51.3414 36.5616C51.363 36.4279 51.3618 36.2985 51.3617 36.1691H45.522Z" fill="#FFFAB4"/>
<path d="M45.522 31.4926C44.8764 31.4926 44.3529 32.0161 44.3529 32.6617C44.3529 33.3073 44.8764 33.8308 45.522 33.8308H49.0351H49.6197C51.0319 33.8308 52.195 32.8238 52.468 31.4926H45.522Z" fill="#FFFAB4"/>
<path d="M31.4927 44.3528V30.0325C31.4927 29.5236 31.8202 29.0784 32.3036 28.9201C34.6596 28.1477 41.3734 25.2652 41.9491 17.3719C41.7542 17.1719 41.6493 17.0643 41.4543 16.8643C39.8385 16.8613 38.5269 18.1569 38.5269 19.7721C38.5269 20.8247 36.2424 23.9485 31.961 25.3384C31.2745 25.5611 30.6761 25.985 30.1822 26.5111C29.8294 26.8866 28.9073 28.0026 27.9852 28.6569V45.5219H24.478C23.1865 45.5219 22.1398 44.4751 22.1398 43.1837V27.9854H19.8017C19.1561 27.9854 18.6326 28.5089 18.6326 29.1545V47.86C18.6326 48.5056 19.1561 49.0291 19.8017 49.0291H26.8163C27.4619 49.0291 27.9854 48.5056 27.9854 47.86H46.6968C47.9883 47.86 49.035 46.813 49.035 45.5219H32.6617C32.0161 45.5219 31.4927 44.9985 31.4927 44.3528Z" fill="#FFFAB4"/>
<path d="M53.6385 30.9082C53.6385 28.6921 51.8357 26.8893 49.6196 26.8893H42.2338C44.0282 24.8723 45.201 22.5756 45.4275 20.5151C45.5659 19.2566 45.1771 18.0074 44.3604 17.0877C43.6141 16.247 42.5935 15.7785 41.4866 15.7682C41.4738 15.7681 41.4609 15.7681 41.4482 15.7681C40.3776 15.7681 39.3727 16.1804 38.6143 16.9318C37.8558 17.6834 37.4361 18.6846 37.4311 19.753C37.3922 19.9869 36.9806 20.7934 35.9737 21.751C35.1493 22.5352 33.7252 23.6133 31.6226 24.2959C30.7982 24.5636 30.0448 25.0565 29.3833 25.7608C29.0362 26.1303 28.5164 26.6405 27.8728 27.1526C27.557 26.9853 27.1979 26.8896 26.8163 26.8896H19.8017C18.5526 26.8896 17.5365 27.9057 17.5365 29.1547V47.8603C17.5365 49.1094 18.5526 50.1255 19.8017 50.1255H26.8163C27.6678 50.1255 28.4103 49.6527 28.7972 48.9564H46.6968C48.5905 48.9564 50.1311 47.4159 50.1311 45.5222C50.1311 44.8855 49.957 44.2888 49.6538 43.7769C50.6405 43.1729 51.3002 42.0849 51.3002 40.8457C51.3002 40.209 51.1261 39.6124 50.8229 39.1005C51.8096 38.4965 52.4692 37.4085 52.4692 36.1692C52.4692 35.4526 52.2486 34.7865 51.8716 34.2352C52.9371 33.5117 53.6385 32.2903 53.6385 30.9082ZM49.6196 32.7349H49.035C48.4297 32.7349 47.9389 33.2255 47.9389 33.8309C47.9389 34.4362 48.4296 34.927 49.035 34.927C49.72 34.927 50.2772 35.4843 50.2772 36.1692C50.2772 36.8542 49.72 37.4115 49.035 37.4115H47.8659C47.2607 37.4115 46.7698 37.9021 46.7698 38.5075C46.7698 39.1129 47.2605 39.6036 47.8659 39.6036C48.5509 39.6036 49.1081 40.1609 49.1081 40.8458C49.1081 41.5308 48.5509 42.0881 47.8659 42.0881H46.6968C46.0916 42.0881 45.6008 42.5787 45.6008 43.1841C45.6008 43.7895 46.0914 44.2802 46.6968 44.2802C47.3818 44.2802 47.9391 44.8375 47.9391 45.5224C47.9391 46.2074 47.3818 46.7647 46.6968 46.7647H29.0814V36.1696C29.0814 35.5644 28.5908 35.0736 27.9854 35.0736C27.3801 35.0736 26.8893 35.5643 26.8893 36.1696V47.8606C26.8893 47.9009 26.8566 47.9336 26.8163 47.9336H19.8017C19.7613 47.9336 19.7286 47.9009 19.7286 47.8606V29.1545C19.7286 29.1141 19.7613 29.0815 19.8017 29.0815H26.8163C26.8566 29.0815 26.8893 29.1141 26.8893 29.1545V31.4928C26.8893 32.098 27.38 32.5888 27.9854 32.5888C28.5906 32.5888 29.0814 32.0982 29.0814 31.4928V29.1545C29.0814 29.1013 29.0771 29.0492 29.0734 28.997C29.8952 28.3608 30.5524 27.7177 30.9811 27.2613C31.3868 26.8292 31.8303 26.533 32.2994 26.3809C34.8793 25.5433 36.6155 24.1947 37.6175 23.2109C38.8734 21.9778 39.623 20.6924 39.623 19.7721C39.623 19.286 39.8126 18.8303 40.157 18.489C40.5057 18.1436 40.9674 17.961 41.4662 17.9604C42.0807 17.9661 42.4875 18.2804 42.7209 18.5432C43.121 18.9937 43.3178 19.6414 43.2482 20.2757C43.0088 22.4535 41.2672 25.1455 38.8112 27.1336C38.4504 27.4258 38.3127 27.9136 38.4676 28.3512C38.6225 28.7889 39.0365 29.0815 39.5008 29.0815H49.6193C50.6267 29.0815 51.446 29.9008 51.446 30.9082C51.446 31.9155 50.6268 32.7349 49.6196 32.7349Z" fill="black"/>
<path d="M23.309 43.2449C22.7038 43.2449 22.2072 43.7415 22.2072 44.3468C22.2072 44.952 22.7038 45.4486 23.309 45.4486C23.9143 45.4486 24.4108 44.952 24.4108 44.3468C24.4108 43.7415 23.9144 43.2449 23.309 43.2449Z" fill="black"/>
<path d="M68.046 35.0003L69.9289 30.0179C70.0661 29.6554 70.0014 29.2476 69.759 28.945L66.4286 24.7882L66.6797 19.4678C66.698 19.0809 66.5104 18.7127 66.1867 18.5001L61.7348 15.5759L60.3296 10.4382C60.2274 10.0645 59.9353 9.77242 59.5617 9.67029L54.4241 8.2651L51.4998 3.8134C51.287 3.48951 50.919 3.30276 50.5321 3.32039L45.2117 3.57141L41.0549 0.241077C40.7525 -0.00118883 40.3446 -0.0658568 39.982 0.0711354L34.9996 1.95403L30.0174 0.0712721C29.6547 -0.0658568 29.247 -0.00118884 28.9446 0.241213L24.7878 3.57155L19.4674 3.32053C19.0786 3.30221 18.7123 3.48979 18.4997 3.81354L15.5754 8.26537L10.4379 9.67057C10.0642 9.77283 9.77212 10.0649 9.66999 10.4385L8.2648 15.5761L3.81296 18.5004C3.48907 18.7131 3.30163 19.0812 3.31995 19.4681L3.57097 24.7885L0.240635 28.9452C-0.00163059 29.2476 -0.0662986 29.6554 0.0706936 30.018L1.95345 35.0003L0.0705569 39.9826C-0.066572 40.3451 -0.00190402 40.7529 0.240498 41.0555L3.57083 45.2122L3.31982 50.5327C3.30149 50.9196 3.48907 51.2878 3.81282 51.5004L8.26466 54.4246L9.66986 59.5622C9.77212 59.936 10.0642 60.2281 10.4378 60.3302L15.5754 61.7354L18.4997 66.1872C18.7124 66.5111 19.0812 66.6975 19.4674 66.6802L24.7878 66.4292L28.9446 69.7596C29.247 70.002 29.655 70.0666 30.0174 69.9295L34.9999 68.0466L39.9823 69.9295C40.1081 69.9769 40.2392 70.0002 40.3696 70.0002C40.6152 70.0002 40.8576 69.9177 41.055 69.7596L45.2118 66.4292L50.5322 66.6802C50.9204 66.6975 51.2872 66.511 51.4999 66.1872L54.4242 61.7354L59.5618 60.3302C59.9356 60.2279 60.2276 59.9359 60.3298 59.5622L61.735 54.4246L66.1868 51.5004C66.5107 51.2876 66.6981 50.9196 66.6798 50.5327L66.4288 45.2122L69.7591 41.0555C70.0014 40.753 70.0661 40.3452 69.9291 39.9826L68.046 35.0003ZM65.8491 35.3878L67.6573 40.1728L64.4589 44.1648C64.292 44.3731 64.2068 44.6352 64.2194 44.9018L64.4606 50.0113L60.1851 52.8197C59.9621 52.9661 59.8 53.1891 59.7296 53.4467L58.38 58.3807L53.446 59.7303C53.1885 59.8007 52.9657 59.9627 52.819 60.1858L50.0106 64.4613L44.9011 64.2201C44.6343 64.2078 44.3724 64.2927 44.1641 64.4596L40.1721 67.658L35.3871 65.8498C35.2622 65.8026 35.1309 65.7791 34.9996 65.7791C34.8684 65.7791 34.737 65.8028 34.6121 65.8498L29.8271 67.658L25.8351 64.4596C25.6268 64.2927 25.3643 64.2078 25.0982 64.2201L19.9886 64.4613L17.1802 60.1858C17.0338 59.9628 16.8108 59.8007 16.5532 59.7303L11.6192 58.3807L10.2696 53.4467C10.1992 53.1892 10.0372 52.9664 9.81409 52.8197L5.53876 50.0113L5.77993 44.9018C5.79251 44.635 5.70733 44.3731 5.5404 44.1648L2.342 40.1728L4.15024 35.3878C4.24472 35.1381 4.24472 34.8625 4.15024 34.6129L2.342 29.8278L5.5404 25.8358C5.70733 25.6276 5.79251 25.3655 5.77993 25.0989L5.53876 19.9893L9.81409 17.1809C10.0371 17.0345 10.1992 16.8115 10.2696 16.5539L11.6192 11.6199L16.5532 10.2704C16.8107 10.1999 17.0335 10.0379 17.1802 9.81481L19.9886 5.53947L25.0982 5.78065C25.3645 5.79309 25.6268 5.70805 25.8351 5.54112L29.8271 2.34272L34.6121 4.15096C34.8619 4.24543 35.1374 4.24543 35.3871 4.15096L40.1721 2.34272L44.1641 5.54112C44.3724 5.70819 44.6346 5.79322 44.9011 5.78065L50.0106 5.53947L52.819 9.81481C52.9654 10.0378 53.1884 10.1999 53.446 10.2704L58.38 11.6199L59.7296 16.5539C59.8 16.8114 59.962 17.0342 60.1851 17.1809L64.4604 19.9893L64.2193 25.0989C64.2067 25.3656 64.2919 25.6276 64.4588 25.8358L67.6572 29.8278L65.849 34.6129C65.7548 34.8626 65.7548 35.1381 65.8491 35.3878Z" fill="black"/>
<path d="M53.2032 16.7468C53.4667 17.0103 53.728 17.283 53.9797 17.557C54.1958 17.7925 54.4911 17.9118 54.7874 17.9118C55.0522 17.9118 55.3179 17.8164 55.5283 17.6232C55.9741 17.2139 56.0038 16.5204 55.5945 16.0746C55.3217 15.7776 55.0388 15.4823 54.7532 15.1968C54.4676 14.9114 54.1724 14.6284 53.8755 14.3556C53.4296 13.9463 52.7363 13.9758 52.3269 14.4218C51.9175 14.8676 51.9471 15.5611 52.393 15.9704C52.667 16.222 52.9395 16.4831 53.2032 16.7468Z" fill="black"/>
<path d="M16.7261 16.7468C20.9014 12.5713 26.4293 9.9374 32.2908 9.33023C38.0706 8.7314 43.9353 10.1108 48.8053 13.2135C49.316 13.5387 49.9933 13.3886 50.3185 12.8781C50.6438 12.3676 50.4937 11.6901 49.9832 11.3649C44.6976 7.99749 38.3339 6.50097 32.0649 7.14997C25.7041 7.80896 19.7063 10.6667 15.1759 15.1968C10.1902 20.1826 7.2874 26.8058 7.00221 33.8464C6.71893 40.8454 9.03713 47.6409 13.5301 52.9806C13.7468 53.2381 14.0569 53.3709 14.3694 53.3709C14.6185 53.3709 14.8689 53.2864 15.0745 53.1136C15.5376 52.7238 15.5972 52.0324 15.2075 51.5694C11.0675 46.649 8.93145 40.3864 9.19272 33.9351C9.45535 27.4461 12.1308 21.3419 16.7261 16.7468Z" fill="black"/>
<path d="M57.0721 19.6313C56.5615 19.9565 56.4115 20.6341 56.7368 21.1445C59.8395 26.0147 61.2185 31.8796 60.62 37.659C60.0128 43.5207 57.3789 49.0484 53.2035 53.224C48.6083 57.8192 42.5041 60.4946 36.0153 60.7574C29.565 61.0196 23.3012 58.8826 18.381 54.7427C17.9179 54.3529 17.2266 54.4125 16.8368 54.8757C16.447 55.3388 16.5066 56.0302 16.9698 56.42C22.0176 60.6671 28.3654 62.9711 34.9573 62.971C35.3386 62.971 35.7215 62.9632 36.1043 62.9477C43.1449 62.6627 49.7679 59.7599 54.7538 54.7742C59.2841 50.2438 62.1419 44.2459 62.8007 37.885C63.4501 31.6158 61.9533 25.2523 58.5858 19.9668C58.2602 19.4562 57.5824 19.3059 57.0721 19.6313Z" fill="black"/>
</g>
<defs>
<clipPath id="clip0">
<rect width="70" height="70" fill="white"/>
</clipPath>
</defs>
</svg>
