<svg width="30" height="30" viewBox="0 0 30 30" fill="none" xmlns="http://www.w3.org/2000/svg">
<path d="M0 15C0 23.2843 6.71573 30 15 30C23.2843 30 30 23.2843 30 15C30 6.71573 23.2843 0 15 0C6.71573 0 0 6.71573 0 15Z" fill="#61A8DE"/>
<path d="M23.6221 6.62234L3.56074 14.44C2.91095 14.6933 2.95032 15.6257 3.6192 15.8232L8.71701 17.3286L10.6195 23.3654C10.8182 23.996 11.6173 24.1872 12.0799 23.7149L14.7156 21.0237L19.8871 24.8197C20.52 25.2842 21.4213 24.9391 21.582 24.1707L25.0071 7.7952C25.1748 6.99309 24.3857 6.3248 23.6221 6.62234ZM21.1069 10.2565L11.7886 18.4967C11.6957 18.5789 11.6366 18.6926 11.6227 18.8158L11.264 22.005C11.2523 22.109 11.1067 22.1228 11.0756 22.0229L9.59957 17.2666C9.53196 17.0488 9.62011 16.8129 9.81384 16.6928L20.8179 9.86794C21.0709 9.71088 21.33 10.0592 21.1069 10.2565Z" fill="white"/>
</svg>
