<svg width="70" height="70" viewBox="0 0 70 70" fill="none" xmlns="http://www.w3.org/2000/svg">
<g clip-path="url(#clip0)">
<path d="M38.8677 44.5667L61.9143 67.827C63.46 69.3871 65.966 69.3871 67.5117 67.827C69.0574 66.267 69.0574 63.7377 67.5117 62.1776L39.8914 34.3011L35.7013 30.072L22.9906 17.2435C24.9062 13.0172 24.1416 7.85698 20.6943 4.37772C17.4444 1.09759 12.7145 0.226271 8.67462 1.75706L15.7904 8.93892L14.0947 13.9145L9.16478 15.626L2.04899 8.44411C0.532144 12.5213 1.39553 17.2952 4.64558 20.5754C8.09283 24.0547 13.2056 24.8263 17.3932 22.8929L25.1465 30.7182L38.8677 44.5667Z" fill="#C0C7CF"/>
<path d="M67.5119 62.1776L39.8915 34.3011L35.7014 30.072L22.9907 17.2435C24.9064 13.0172 24.1417 7.85698 20.6945 4.37772C17.903 1.56039 14.0202 0.521814 10.4203 1.25418C12.5312 1.68485 14.5441 2.72521 16.1813 4.37772C19.6286 7.85698 20.3931 13.0172 18.4775 17.2435L31.1882 30.072L35.3784 34.3011L62.9987 62.1776C64.5444 63.7377 64.5444 66.267 62.9987 67.827C62.8288 67.9984 62.6469 68.1498 62.4565 68.2835C63.9996 69.3671 66.136 69.2157 67.5119 67.827C69.0576 66.267 69.0576 63.7377 67.5119 62.1776Z" fill="#ABB1B8"/>
<path d="M34.8654 44.3704L25.7241 35.145C24.5881 33.9987 24.5881 32.1399 25.7241 30.9936C26.86 29.8472 28.7017 29.8472 29.8377 30.9936L38.9789 40.2189C40.1149 41.3653 40.1149 43.224 38.9789 44.3704C37.843 45.5167 36.0013 45.5167 34.8654 44.3704Z" fill="#E7387F"/>
<path d="M2.87121 67.4339C0.80595 65.3496 0.80595 61.9702 2.87121 59.8858L26.5552 35.9836L34.0344 43.5317L10.3503 67.4339C8.28499 69.5182 4.93648 69.5182 2.87121 67.4339Z" fill="#EF75A7"/>
<path d="M60.3244 17.7094L68.651 6.53857L63.2108 1.04834L52.1418 9.45149L50.9468 15.1564L51.064 15.2747L32.7878 33.7193L36.2781 37.2417L54.5542 18.7972L54.6716 18.9155L60.3244 17.7094Z" fill="#DFE6F0"/>
<path d="M63.2108 1.04834L59.2373 4.06493L65.674 10.5322L68.651 6.53857L63.2108 1.04834Z" fill="#D0D7E0"/>
<path d="M40.9854 33.948L54.8874 19.9181L60.5383 18.7124C60.7818 18.6604 60.998 18.5218 61.1467 18.3222L69.3203 7.35641C69.346 7.33548 69.3711 7.31333 69.395 7.28939C69.7973 6.89059 69.8004 6.24124 69.4017 5.83888L66.6593 3.0712L63.9394 0.326225L63.9171 0.303796C63.5183 -0.0986983 62.8688 -0.10157 62.4666 0.297095C62.4382 0.325131 62.4125 0.354536 62.3882 0.384897L51.5215 8.6346C51.3247 8.78395 51.1885 8.99935 51.1378 9.24128L49.9427 14.9461C49.9425 14.9473 49.9423 14.9486 49.942 14.9496L47.4471 17.4676C46.5201 18.4032 47.9758 19.8482 48.9043 18.9115L51.7926 15.9967C52.0736 15.7132 52.1553 15.3066 52.0377 14.9514L53.0672 10.0368L59.1479 5.42052C59.1479 5.42052 64.2432 10.5232 64.3637 10.5738L59.7327 16.7868L54.8756 17.823C54.5113 17.7027 54.098 17.8003 53.8256 18.0751L36.278 35.7842L34.2318 33.719L44.1613 23.698C45.0883 22.7624 43.6323 21.3172 42.7041 22.254L36.0515 28.968L24.2011 17.0077C25.9632 12.4368 24.8884 7.1529 21.4232 3.65573C17.9981 0.199172 12.8514 -0.922697 8.31114 0.797922C7.63621 1.05367 7.43504 1.96328 7.94598 2.47902L14.6146 9.20941L13.2852 13.1096L9.43862 14.4451L2.77756 7.72225C2.26497 7.20515 1.34305 7.3999 1.08757 8.08659C-0.613762 12.66 0.496757 17.8456 3.91693 21.2975C7.38334 24.7961 12.6201 25.8832 17.1541 24.1092L24.2675 31.2885C23.4824 32.8632 23.849 34.7755 25.111 35.9836L2.14243 59.1637C-0.132901 61.4601 -0.298522 65.2367 1.7584 67.7273C4.09951 70.5621 8.48729 70.7712 11.079 68.1558L34.0344 44.9889C35.2232 46.2486 37.1194 46.6276 38.6833 45.8378L51.5723 58.8463C52.4934 59.776 53.9539 58.3352 53.0295 57.4024L40.2126 44.4666C41.2116 42.9321 41.0434 40.8451 39.7076 39.4969L37.5975 37.3673L39.5416 35.4053L66.7832 62.8996C69.434 65.5749 65.3457 69.8331 62.643 67.105L57.3657 61.7788C56.4388 60.8432 54.9801 62.2858 55.9085 63.2227L61.1858 68.549C63.1639 70.5456 66.4754 70.4664 68.3724 68.4052C70.1628 66.4599 70.1018 63.3341 68.2406 61.4556L40.9854 33.948ZM65.4897 8.90635L60.7959 4.16914L63.1148 2.40858L67.3007 6.63307L65.5534 8.97733C65.5333 8.95312 65.5124 8.92919 65.4897 8.90635ZM9.62161 66.7118C7.40276 68.9511 3.27852 67.8117 2.48803 64.7553C2.10879 63.2889 2.53248 61.6848 3.59978 60.6077L26.5552 37.4409L29.8994 40.8158L32.5905 43.5317L9.62161 66.7118ZM38.2501 43.6483C37.8948 44.0069 37.4231 44.2043 36.922 44.2043C36.4209 44.2043 35.9491 44.0068 35.5939 43.6483L34.7631 42.81C34.763 42.8098 34.763 42.8098 34.7628 42.8097L31.0232 39.0357L26.4525 34.423C25.7129 33.6765 25.7129 32.4619 26.4525 31.7155C26.8078 31.3569 27.2794 31.1595 27.7806 31.1595C28.2819 31.1595 28.7534 31.357 29.1087 31.7155L38.25 40.9408C38.9898 41.6873 38.9898 42.9019 38.2501 43.6483ZM30.5662 30.2715C29.8228 29.5212 28.8336 29.1079 27.7809 29.1079C27.0056 29.1079 26.2652 29.3328 25.6317 29.7506L18.1217 22.1712C17.818 21.8647 17.355 21.7808 16.9631 21.9619C13.0642 23.7619 8.40715 22.9146 5.37415 19.8537C2.90913 17.3658 1.87943 13.7996 2.55381 10.4113L8.43601 16.3481C8.71391 16.6286 9.12844 16.7244 9.50112 16.595L14.431 14.8835C14.7294 14.7799 14.9636 14.5444 15.0655 14.2453L16.7612 9.26973C16.8867 8.90129 16.7929 8.49346 16.519 8.21692L10.6162 2.25951C13.9697 1.57501 17.5016 2.61291 19.9657 5.09981C23.0038 8.16605 23.8439 12.8762 22.0563 16.8202C21.8807 17.2076 21.9624 17.6633 22.2618 17.9656L34.6073 30.4255L32.6629 32.3878L30.5662 30.2715Z" fill="black"/>
<path d="M15.645 54.8039L6.70729 63.824C5.79357 64.746 7.22917 66.212 8.1645 65.2679L17.1023 56.2478C18.0292 55.3122 16.5733 53.8669 15.645 54.8039Z" fill="black"/>
<path d="M64.2651 63.6633C62.9451 63.6633 62.9429 65.7148 64.2651 65.7148C65.585 65.7148 65.5872 63.6633 64.2651 63.6633Z" fill="black"/>
</g>
<defs>
<clipPath id="clip0">
<rect width="70" height="70" fill="white"/>
</clipPath>
</defs>
</svg>
