<svg width="30" height="30" viewBox="0 0 30 30" fill="none" xmlns="http://www.w3.org/2000/svg">
<path d="M0 15C0 23.2843 6.71573 30 15 30C23.2843 30 30 23.2843 30 15C30 6.71573 23.2843 0 15 0C6.71573 0 0 6.71573 0 15Z" fill="#7D3DAF"/>
<path d="M24.4879 9.67023L24.482 9.64653C24.0027 7.70921 21.8422 5.63035 19.8582 5.19786L19.8358 5.19325C16.6267 4.58105 13.3728 4.58105 10.1643 5.19325L10.1413 5.19786C8.15785 5.63035 5.99737 7.70921 5.51748 9.64653L5.51221 9.67023C4.91976 12.3758 4.91976 15.1195 5.51221 17.825L5.51748 17.8487C5.97689 19.7034 7.9765 21.6867 9.8865 22.2322V24.3948C9.8865 25.1775 10.8404 25.5619 11.3828 24.9971L13.5739 22.7195C14.0491 22.7461 14.5246 22.7609 15 22.7609C16.6155 22.7609 18.2316 22.6082 19.8358 22.3021L19.8582 22.2975C21.8422 21.865 24.0027 19.7861 24.482 17.8488L24.4879 17.8251C25.0803 15.1195 25.0803 12.3758 24.4879 9.67023ZM22.754 17.4327C22.434 18.6966 20.7936 20.2679 19.4902 20.5582C17.7839 20.8827 16.064 21.0214 14.3459 20.9738C14.3117 20.9729 14.2789 20.9861 14.2551 21.0106C14.0112 21.2609 12.6552 22.6529 12.6552 22.6529L10.9536 24.3993C10.8292 24.529 10.6106 24.4408 10.6106 24.2617V20.6792C10.6106 20.62 10.5684 20.5697 10.5102 20.5584C10.5099 20.5583 10.5096 20.5582 10.5092 20.5582C9.20584 20.2679 7.56606 18.6965 7.24547 17.4326C6.71226 14.9871 6.71226 12.508 7.24547 10.0625C7.56606 8.7986 9.20584 7.22728 10.5092 6.93698C13.4893 6.3702 16.5108 6.3702 19.4902 6.93698C20.7943 7.22728 22.434 8.7986 22.754 10.0625C23.2878 12.5081 23.2878 14.9872 22.754 17.4327Z" fill="white"/>
<path d="M17.8353 19.0864C17.6349 19.0256 17.444 18.9847 17.2666 18.9111C15.429 18.1487 13.7377 17.1651 12.398 15.6573C11.6362 14.7999 11.0399 13.8318 10.5359 12.8074C10.2968 12.3216 10.0954 11.8168 9.89009 11.3152C9.70287 10.8579 9.97863 10.3853 10.269 10.0407C10.5415 9.71731 10.8921 9.4698 11.2718 9.28739C11.5681 9.145 11.8605 9.22709 12.0769 9.47829C12.5448 10.0214 12.9746 10.5922 13.3226 11.2218C13.5367 11.609 13.4779 12.0823 13.0901 12.3458C12.9958 12.4098 12.9099 12.485 12.8221 12.5573C12.7451 12.6207 12.6726 12.6848 12.6198 12.7706C12.5233 12.9277 12.5187 13.1129 12.5808 13.2837C13.0591 14.5982 13.8653 15.6203 15.1884 16.1708C15.4001 16.2589 15.6127 16.3614 15.8566 16.333C16.265 16.2853 16.3973 15.8372 16.6835 15.6032C16.9633 15.3744 17.3208 15.3714 17.6222 15.5621C17.9236 15.7528 18.2158 15.9576 18.5062 16.1646C18.7913 16.3678 19.0752 16.5665 19.3382 16.7981C19.591 17.0208 19.6781 17.3129 19.5357 17.6151C19.275 18.1686 18.8957 18.6291 18.3486 18.923C18.1941 19.0059 18.0096 19.0327 17.8353 19.0864C17.6349 19.0255 18.0096 19.0327 17.8353 19.0864Z" fill="white"/>
<path d="M15.005 8.6545C17.4087 8.72185 19.383 10.3171 19.8061 12.6935C19.8782 13.0984 19.9038 13.5124 19.9359 13.9233C19.9494 14.0962 19.8515 14.2604 19.665 14.2627C19.4723 14.265 19.3856 14.1038 19.3731 13.931C19.3483 13.5889 19.3311 13.2454 19.284 12.9062C19.0352 11.1156 17.6074 9.63416 15.825 9.31628C15.5569 9.26842 15.2824 9.25585 15.0107 9.22734C14.8389 9.20931 14.614 9.1989 14.5759 8.98542C14.544 8.80644 14.6951 8.66392 14.8655 8.65477C14.9119 8.6522 14.9585 8.65431 15.005 8.6545C17.4087 8.72185 14.9585 8.65431 15.005 8.6545Z" fill="white"/>
<path d="M18.658 13.3899C18.654 13.4199 18.6519 13.4905 18.6343 13.557C18.5706 13.7983 18.2047 13.8285 18.1204 13.585C18.0955 13.5127 18.0917 13.4305 18.0916 13.3527C18.0907 12.8435 17.9801 12.335 17.7233 11.892C17.4594 11.4367 17.0562 11.054 16.5833 10.8224C16.2974 10.6824 15.9881 10.5954 15.6747 10.5435C15.5377 10.5209 15.3993 10.5071 15.2616 10.4879C15.0948 10.4648 15.0058 10.3585 15.0137 10.1941C15.021 10.04 15.1336 9.92926 15.3015 9.93874C15.8531 9.97007 16.3859 10.0893 16.8763 10.349C17.8736 10.8771 18.4433 11.7108 18.6096 12.8239C18.6171 12.8744 18.6292 12.9243 18.633 12.9749C18.6424 13.1 18.6484 13.2251 18.658 13.3899C18.654 13.4199 18.6484 13.2251 18.658 13.3899Z" fill="white"/>
<path d="M17.1628 13.3317C16.9617 13.3354 16.8541 13.224 16.8334 13.0397C16.819 12.9111 16.8076 12.7808 16.7769 12.6558C16.7165 12.4094 16.5855 12.1811 16.3783 12.0302C16.2805 11.9589 16.1696 11.907 16.0535 11.8735C15.906 11.8309 15.7528 11.8426 15.6056 11.8065C15.4458 11.7673 15.3574 11.6379 15.3825 11.488C15.4054 11.3515 15.5381 11.245 15.6872 11.2558C16.6192 11.3231 17.2852 11.8049 17.3803 12.902C17.387 12.9794 17.3949 13.0612 17.3777 13.1352C17.3483 13.262 17.2544 13.3256 17.1628 13.3317C16.9617 13.3354 17.2544 13.3256 17.1628 13.3317Z" fill="white"/>
</svg>
