<svg width="72" height="25" viewBox="0 0 72 25" fill="none" xmlns="http://www.w3.org/2000/svg">
<g clip-path="url(#clip0)">
<path d="M31.1605 23.6798H25.3354L28.9788 1.07916H34.8037L31.1605 23.6798Z" fill="#00579F"/>
<path d="M52.2772 1.63163C51.1282 1.17434 49.3058 0.669434 47.0525 0.669434C41.3 0.669434 37.2491 3.74681 37.2242 8.14652C37.1765 11.3926 40.1245 13.1956 42.3295 14.2779C44.5831 15.3839 45.3492 16.1058 45.3492 17.0917C45.3263 18.6057 43.5281 19.3037 41.851 19.3037C39.5254 19.3037 38.2793 18.9438 36.3855 18.1015L35.6185 17.7404L34.8033 22.8137C36.1696 23.4381 38.6867 23.9923 41.3 24.0166C47.4121 24.0166 51.3913 20.9868 51.4384 16.2982C51.4617 13.7254 49.905 11.754 46.5489 10.1431C44.5115 9.10904 43.2638 8.41176 43.2638 7.35369C43.2877 6.39181 44.3191 5.4066 46.6189 5.4066C48.5127 5.35835 49.904 5.815 50.9581 6.27197L51.4849 6.51196L52.2772 1.63163Z" fill="#00579F"/>
<path d="M60.0193 15.6732C60.499 14.3748 62.345 9.34972 62.345 9.34972C62.3207 9.39797 62.8237 8.02738 63.1114 7.18597L63.5185 9.13338C63.5185 9.13338 64.6216 14.5432 64.8611 15.6732C63.9507 15.6732 61.1699 15.6732 60.0193 15.6732ZM67.2097 1.07916H62.7039C61.3145 1.07916 60.2588 1.48756 59.6593 2.95435L51.0068 23.6795H57.119C57.119 23.6795 58.1253 20.89 58.3415 20.2892C59.0121 20.2892 64.9579 20.2892 65.8205 20.2892C65.9878 21.0827 66.5156 23.6795 66.5156 23.6795H71.9091L67.2097 1.07916Z" fill="#00579F"/>
<path d="M20.47 1.07916L14.7653 16.4906L14.1419 13.365C13.0872 9.75843 9.7795 5.83998 6.08826 3.89162L11.3136 23.6558H17.4735L26.6296 1.07916H20.47Z" fill="#00579F"/>
<path d="M9.46796 1.08276H0.0958801L0 1.53942C7.31081 3.41492 12.1526 7.93574 14.1419 13.3696L12.1045 2.98255C11.7691 1.5391 10.7383 1.13038 9.46796 1.08276Z" fill="#FAA61A"/>
</g>
<defs>
<clipPath id="clip0">
<rect width="71.9091" height="23.3471" fill="white" transform="translate(0 0.669434)"/>
</clipPath>
</defs>
</svg>
