<svg width="53" height="53" viewBox="0 0 53 53" fill="none" xmlns="http://www.w3.org/2000/svg">
<g clip-path="url(#clip0)">
<path d="M26.5393 3.32678C22.9061 3.32678 19.536 5.16599 17.602 8.38238L2.32307 33.7924C1.33216 35.4407 0.812584 37.3114 0.820243 39.2029C0.835044 42.8276 2.75912 46.2204 5.85058 48.0963C7.46778 49.0776 9.33876 49.5963 11.2613 49.5963H41.819C43.7418 49.5963 45.6129 49.0777 47.2298 48.0965C50.3224 46.2198 52.245 42.8263 52.2598 39.2028C52.2674 37.3111 51.7479 35.4403 50.7571 33.7926L35.4783 8.38238C33.5751 5.21681 30.2334 3.32678 26.5393 3.32678Z" fill="#FF8188"/>
<path d="M6.04703 39.2029C6.03926 37.3114 6.55884 35.4407 7.54986 33.7924L22.8288 8.38238C24.2877 5.95622 26.5639 4.31418 29.1536 3.65353C28.3132 3.43918 27.4369 3.32678 26.5393 3.32678C22.9061 3.32678 19.536 5.16599 17.602 8.38238L2.32307 33.7924C1.33216 35.4407 0.812584 37.3114 0.820243 39.2029C0.835044 42.8276 2.75912 46.2204 5.85058 48.0963C7.46778 49.0776 9.33876 49.5963 11.2613 49.5963H16.4881C14.5655 49.5963 12.6946 49.0776 11.0774 48.0963C7.98591 46.2203 6.06183 42.8275 6.04703 39.2029Z" fill="#FF656F"/>
<path d="M26.5391 7.65759C28.5609 7.65749 30.5822 8.64385 31.7667 10.6141L47.0456 36.0241C49.4921 40.093 46.5689 45.2655 41.819 45.2655H11.2613C6.51434 45.2655 3.58683 40.0955 6.03462 36.0241L21.3136 10.614C22.4992 8.64219 24.5194 7.65759 26.5391 7.65759Z" fill="#FF656F"/>
<path d="M11.2614 36.024L26.5404 10.614C27.2005 9.51614 28.1197 8.72529 29.153 8.23904C28.3302 7.85205 27.4348 7.65747 26.5391 7.65747C24.5193 7.65757 22.4992 8.64218 21.3136 10.6139L6.0346 36.024C3.58692 40.0954 6.51433 45.2654 11.2614 45.2654H16.4882C11.7411 45.2654 8.81359 40.0954 11.2614 36.024Z" fill="#FF4756"/>
<path d="M26.5399 17.0563C24.2055 17.0563 23.7742 19.2371 23.9038 21.4836L24.26 29.434C24.7653 31.9181 28.316 31.9122 28.8201 29.434L29.1763 21.4836C29.3059 19.0599 28.8752 17.0563 26.5399 17.0563Z" fill="#DFEBFA"/>
<path d="M26.54 39.4973C27.9553 39.4973 29.1026 38.35 29.1026 36.9348C29.1026 35.5195 27.9553 34.3722 26.54 34.3722C25.1248 34.3722 23.9775 35.5195 23.9775 36.9348C23.9775 38.35 25.1248 39.4973 26.54 39.4973Z" fill="#DFEBFA"/>
<path d="M27.0205 29.434L26.6643 21.4836C26.5655 19.7714 26.7936 18.0985 27.9407 17.3991C27.5762 17.1788 27.1162 17.0563 26.5398 17.0563C24.2054 17.0563 23.7741 19.2371 23.9037 21.4836L24.2599 29.434C24.6342 31.2744 26.6792 31.7466 27.9193 30.8608C27.4866 30.5512 27.1512 30.0766 27.0205 29.434Z" fill="#B1DBFC"/>
<path d="M26.738 36.9348C26.738 36.0279 27.2095 35.2317 27.9203 34.7763C27.5218 34.5209 27.0484 34.3723 26.54 34.3723C25.1248 34.3723 23.9775 35.5196 23.9775 36.9349C23.9775 38.3501 25.1248 39.4975 26.54 39.4975C27.0484 39.4975 27.5218 39.3488 27.9203 39.0935C27.2095 38.6379 26.738 37.8417 26.738 36.9348Z" fill="#B1DBFC"/>
<path d="M26.5007 33.6346C24.6597 33.6346 23.162 35.1324 23.162 36.9735C23.162 38.8144 24.6597 40.3122 26.5007 40.3122C28.3417 40.3122 29.8395 38.8144 29.8395 36.9735C29.8395 35.1324 28.3417 33.6346 26.5007 33.6346ZM26.5007 38.7597C25.5158 38.7597 24.7145 37.9584 24.7145 36.9735C24.7145 35.9885 25.5158 35.1871 26.5007 35.1871C27.4857 35.1871 28.287 35.9885 28.287 36.9735C28.287 37.9584 27.4857 38.7597 26.5007 38.7597Z" fill="black"/>
<path d="M11.222 50.4113H24.6894C25.1182 50.4113 25.4657 50.0637 25.4657 49.635C25.4657 49.2063 25.1182 48.8588 24.6894 48.8588H11.222C3.72683 48.8588 -0.925625 40.6754 2.94903 34.2311L18.2281 8.82108C21.9841 2.57429 31.0267 2.58868 34.7737 8.82108L50.0527 34.2312C53.9133 40.6522 49.3021 48.8588 41.7798 48.8588H28.312C27.8832 48.8588 27.5357 49.2063 27.5357 49.635C27.5357 50.0637 27.8832 50.4113 28.312 50.4113H41.7798C50.5105 50.4113 55.8618 40.8802 51.3832 33.4313L36.1042 8.02102C31.7445 0.769865 21.2478 0.786114 16.8975 8.02102L1.61853 33.4312C-2.87465 40.9042 2.52229 50.4113 11.222 50.4113Z" fill="black"/>
<path d="M47.6717 35.6628L32.3928 10.2528C29.7177 5.8039 23.2782 5.81373 20.609 10.2528L5.32997 35.6629C2.57064 40.2526 5.8661 46.0805 11.2221 46.0805H41.7798C47.1343 46.0805 50.432 40.2538 47.6717 35.6628ZM6.66057 36.4629L21.9396 11.0528C24.0105 7.60874 28.9958 7.61599 31.0623 11.0528L46.3412 36.4629C48.4775 40.0162 45.9288 44.5279 41.7799 44.5279H11.2221C7.07561 44.5279 4.52287 40.0183 6.66057 36.4629Z" fill="black"/>
<path d="M24.1456 17.2528C23.3181 18.1293 22.9726 19.5406 23.089 21.5571L23.4453 29.5075C23.4878 30.4487 24.5123 32.1099 26.4994 32.1099C28.4697 32.1099 29.5128 30.469 29.5562 29.5075L29.7106 26.0603C29.7298 25.632 29.3981 25.2692 28.9699 25.2501C28.5397 25.2319 28.1788 25.5626 28.1597 25.9908L28.0082 29.3722C27.804 30.2457 27.0729 30.5573 26.4994 30.5573C25.9271 30.5573 25.1973 30.2457 24.9932 29.3722L24.6394 21.4775C24.551 19.9445 24.7706 18.8522 25.2745 18.3183C25.8669 17.6907 27.2147 17.7355 27.7601 18.311C28.2514 18.8292 28.4482 19.8661 28.3617 21.4873L28.3221 22.3681C28.3029 22.7964 28.6345 23.1592 29.0628 23.1784C29.4911 23.1956 29.8538 22.8658 29.873 22.4378L29.9122 21.5636C30.0241 19.4717 29.6983 18.0988 28.8869 17.2429C27.7306 16.0234 25.3564 15.9701 24.1456 17.2528Z" fill="black"/>
</g>
<defs>
<clipPath id="clip0">
<rect width="53" height="53" fill="white"/>
</clipPath>
</defs>
</svg>
