<svg width="53" height="53" viewBox="0 0 53 53" fill="none" xmlns="http://www.w3.org/2000/svg">
<g clip-path="url(#clip0)">
<path d="M44.2012 0H8.86797C6.4297 0.00283051 4.454 1.97852 4.45117 4.4168V46.8166C4.45117 48.2803 5.63756 49.4667 7.10133 49.4667V52.1165C7.10133 52.6045 7.4968 53 7.98445 53H45.0847C45.5723 53 45.9678 52.6045 45.9678 52.1165V49.4667C47.4312 49.4667 48.618 48.2803 48.618 46.8166V4.4168C48.6147 1.97852 46.6395 0.00283051 44.2012 0V0ZM8.86797 1.76664H44.2012C45.6645 1.76664 46.8513 2.95303 46.8513 4.4168V10.6002H6.21781V4.4168C6.21781 2.95303 7.4042 1.76664 8.86797 1.76664ZM44.2012 51.2334H8.86797V49.4667H44.2012V51.2334ZM45.9678 47.7001H7.10133C6.61327 47.7001 6.21781 47.3046 6.21781 46.8166V12.3665H46.8513V46.8166C46.8513 47.3046 46.4559 47.7001 45.9678 47.7001Z" fill="url(#paint0_linear)"/>
<path d="M8.86799 8.83321H19.4678C19.9559 8.83321 20.3513 8.43775 20.3513 7.9501V4.41682C20.3513 3.92876 19.9559 3.53329 19.4678 3.53329H8.86799C8.37993 3.53329 7.98447 3.92876 7.98447 4.41682V7.9501C7.98447 8.43775 8.37993 8.83321 8.86799 8.83321ZM9.75111 5.29993H18.5847V7.06657H9.75111V5.29993Z" fill="url(#paint1_linear)"/>
<path d="M24.7677 8.83321C26.2315 8.83321 27.4179 7.64683 27.4179 6.18346C27.4179 4.71968 26.2315 3.53329 24.7677 3.53329C23.3043 3.53329 22.118 4.71968 22.118 6.18346C22.118 7.64683 23.3043 8.83321 24.7677 8.83321ZM24.7677 5.29993C25.2558 5.29993 25.6512 5.6954 25.6512 6.18346C25.6512 6.67111 25.2558 7.06657 24.7677 7.06657C24.2801 7.06657 23.8846 6.67111 23.8846 6.18346C23.8846 5.6954 24.2801 5.29993 24.7677 5.29993Z" fill="url(#paint2_linear)"/>
<path d="M31.8343 8.83321C33.298 8.83321 34.4844 7.64683 34.4844 6.18346C34.4844 4.71968 33.298 3.53329 31.8343 3.53329C30.3709 3.53329 29.1845 4.71968 29.1845 6.18346C29.1845 7.64683 30.3709 8.83321 31.8343 8.83321ZM31.8343 5.29993C32.3223 5.29993 32.7178 5.6954 32.7178 6.18346C32.7178 6.67111 32.3223 7.06657 31.8343 7.06657C31.3466 7.06657 30.9511 6.67111 30.9511 6.18346C30.9511 5.6954 31.3466 5.29993 31.8343 5.29993Z" fill="url(#paint3_linear)"/>
<path d="M37.1346 7.06657H38.9012C39.3889 7.06657 39.7843 6.6711 39.7843 6.18345C39.7843 5.69539 39.3889 5.29993 38.9012 5.29993H37.1346C36.6465 5.29993 36.2511 5.69539 36.2511 6.18345C36.2511 6.6711 36.6465 7.06657 37.1346 7.06657Z" fill="url(#paint4_linear)"/>
<path d="M42.4345 7.06657H44.2012C44.6892 7.06657 45.0847 6.6711 45.0847 6.18345C45.0847 5.69539 44.6892 5.29993 44.2012 5.29993H42.4345C41.9465 5.29993 41.551 5.69539 41.551 6.18345C41.551 6.6711 41.9465 7.06657 42.4345 7.06657Z" fill="url(#paint5_linear)"/>
<path d="M26.5344 15.9001C18.7291 15.9001 12.4013 22.2275 12.4013 30.0333C12.4013 37.839 18.7291 44.1668 26.5344 44.1668C34.3401 44.1668 40.6679 37.839 40.6679 30.0333C40.6586 22.2316 34.3365 15.9094 26.5344 15.9001ZM26.5344 42.4001C19.7048 42.4001 14.1679 36.8633 14.1679 30.0333C14.1679 23.2033 19.7048 17.6668 26.5344 17.6668C33.3644 17.6668 38.9013 23.2033 38.9013 30.0333C38.894 36.86 33.3616 42.3929 26.5344 42.4001Z" fill="url(#paint6_linear)"/>
<path d="M26.5344 18.5499C20.1989 18.5439 15.0575 23.6748 15.051 30.0102C15.0498 31.5116 15.3429 32.9988 15.9143 34.3874C15.9196 34.4052 15.9143 34.4234 15.9212 34.4412C15.9285 34.459 15.945 34.4756 15.9539 34.4962C18.414 40.3363 25.143 43.0763 30.9831 40.6161C34.2511 39.2393 36.6987 36.429 37.6142 33.0033C37.619 32.9887 37.6227 32.9738 37.6255 32.9588C39.266 26.8579 35.6498 20.5822 29.5484 18.9422C28.5659 18.6781 27.5521 18.5459 26.5344 18.5499ZM26.5344 20.3166C31.8881 20.304 36.2385 24.6339 36.2511 29.9872C36.2527 30.7102 36.1738 31.4307 36.0153 32.1355C35.5548 32.288 35.1027 32.4651 34.6611 32.6657C33.5152 33.2605 32.2423 33.5694 30.9512 33.5666C29.8517 33.5961 28.7656 33.3207 27.8125 32.7716C26.6132 32.104 25.257 31.7688 23.8846 31.7999C21.6408 31.8913 19.4221 32.3078 17.2984 33.0365C15.6333 27.9415 18.4136 22.4617 23.5085 20.7969C24.4855 20.4775 25.5069 20.3154 26.5344 20.3166ZM26.5344 39.75C22.9736 39.7476 19.6987 37.7986 17.998 34.6701C19.8976 34.0235 21.8798 33.6519 23.8846 33.5666C24.9841 33.5374 26.0702 33.8124 27.0228 34.3615C28.2226 35.0291 29.5788 35.3647 30.9512 35.3332C32.4348 35.3413 33.8997 35.0028 35.2293 34.345C33.592 37.651 30.2237 39.7452 26.5344 39.75Z" fill="url(#paint7_linear)"/>
</g>
<defs>
<linearGradient id="paint0_linear" x1="4.45117" y1="25.5185" x2="47.8915" y2="25.5185" gradientUnits="userSpaceOnUse">
<stop stop-color="#2985C8"/>
<stop offset="1" stop-color="#AA46D9"/>
</linearGradient>
<linearGradient id="paint1_linear" x1="7.98447" y1="6.0851" x2="20.1479" y2="6.0851" gradientUnits="userSpaceOnUse">
<stop stop-color="#2985C8"/>
<stop offset="1" stop-color="#AA46D9"/>
</linearGradient>
<linearGradient id="paint2_linear" x1="22.118" y1="6.0851" x2="27.3307" y2="6.0851" gradientUnits="userSpaceOnUse">
<stop stop-color="#2985C8"/>
<stop offset="1" stop-color="#AA46D9"/>
</linearGradient>
<linearGradient id="paint3_linear" x1="29.1845" y1="6.0851" x2="34.3973" y2="6.0851" gradientUnits="userSpaceOnUse">
<stop stop-color="#2985C8"/>
<stop offset="1" stop-color="#AA46D9"/>
</linearGradient>
<linearGradient id="paint4_linear" x1="36.2511" y1="6.15053" x2="39.7262" y2="6.15053" gradientUnits="userSpaceOnUse">
<stop stop-color="#2985C8"/>
<stop offset="1" stop-color="#AA46D9"/>
</linearGradient>
<linearGradient id="paint5_linear" x1="41.551" y1="6.15053" x2="45.0266" y2="6.15053" gradientUnits="userSpaceOnUse">
<stop stop-color="#2985C8"/>
<stop offset="1" stop-color="#AA46D9"/>
</linearGradient>
<linearGradient id="paint6_linear" x1="12.4013" y1="29.51" x2="40.203" y2="29.51" gradientUnits="userSpaceOnUse">
<stop stop-color="#2985C8"/>
<stop offset="1" stop-color="#AA46D9"/>
</linearGradient>
<linearGradient id="paint7_linear" x1="15.051" y1="29.6091" x2="37.6429" y2="29.6091" gradientUnits="userSpaceOnUse">
<stop stop-color="#2985C8"/>
<stop offset="1" stop-color="#AA46D9"/>
</linearGradient>
<clipPath id="clip0">
<rect width="53" height="53" fill="white"/>
</clipPath>
</defs>
</svg>
